# Exported from Wings 3D 1.4.1
mtllib hoop.mtl
o torus3
#72 vertices, 144 faces
v 1.53421356 -3.0454034e-17 -6.5533998e-18
v 1.32866792 -0.76710678 4.0418343e-17
v 0.76710678 -1.32866792 7.4804046e-17
v 9.3943486e-17 -1.53421356 8.7390087e-17
v -0.76710678 -1.32866792 7.4804046e-17
v -1.32866792 -0.76710678 4.0418343e-17
v -1.53421356 -2.1834101e-16 -6.5533998e-18
v -1.32866792 0.76710678 -5.3525143e-17
v -0.76710678 1.32866792 -8.7910846e-17
v -2.8183046e-16 1.53421356 -1.0049689e-16
v 0.76710678 1.32866792 -8.7910846e-17
v 1.32866792 0.76710678 -5.3525143e-17
v 1.47421356 -2.4090583e-17 0.10392305
v 1.27670640 -0.73710678 0.10392305
v 0.73710678 -1.27670640 0.10392305
v 9.0269546e-17 -1.47421356 0.10392305
v -0.73710678 -1.27670640 0.10392305
v -1.27670640 -0.73710678 0.10392305
v -1.47421356 -2.0462967e-16 0.10392305
v -1.27670640 0.73710678 0.10392305
v -0.73710678 1.27670640 0.10392305
v -2.7080864e-16 1.47421356 0.10392305
v 0.73710678 1.27670640 0.10392305
v 1.27670640 0.73710678 0.10392305
v 1.35421356 -2.4090583e-17 0.10392305
v 1.17278335 -0.67710678 0.10392305
v 0.67710678 -1.17278335 0.10392305
v 8.2921665e-17 -1.35421356 0.10392305
v -0.67710678 -1.17278335 0.10392305
v -1.17278335 -0.67710678 0.10392305
v -1.35421356 -1.8993391e-16 0.10392305
v -1.17278335 0.67710678 0.10392305
v -0.67710678 1.17278335 0.10392305
v -2.4876500e-16 1.35421356 0.10392305
v 0.67710678 1.17278335 0.10392305
v 1.17278335 0.67710678 0.10392305
v 1.29421356 -3.0454034e-17 8.1423618e-18
v 1.12082182 -0.64710678 4.7766224e-17
v 0.64710678 -1.12082182 7.6772905e-17
v 7.9247725e-17 -1.29421356 8.7390087e-17
v -0.64710678 -1.12082182 7.6772905e-17
v -1.12082182 -0.64710678 4.7766224e-17
v -1.29421356 -1.8894948e-16 8.1423618e-18
v -1.12082182 0.64710678 -3.1481501e-17
v -0.64710678 1.12082182 -6.0488181e-17
v -2.3774317e-16 1.29421356 -7.1105363e-17
v 0.64710678 1.12082182 -6.0488181e-17
v 1.12082182 0.64710678 -3.1481501e-17
v 1.35421356 -3.6817486e-17 -0.10392305
v 1.17278335 -0.67710678 -0.10392305
v 0.67710678 -1.17278335 -0.10392305
v 8.2921665e-17 -1.35421356 -0.10392305
v -0.67710678 -1.17278335 -0.10392305
v -1.17278335 -0.67710678 -0.10392305
v -1.35421356 -2.0266082e-16 -0.10392305
v -1.17278335 0.67710678 -0.10392305
v -0.67710678 1.17278335 -0.10392305
v -2.4876500e-16 1.35421356 -0.10392305
v 0.67710678 1.17278335 -0.10392305
v 1.17278335 0.67710678 -0.10392305
v 1.47421356 -3.6817486e-17 -0.10392305
v 1.27670640 -0.73710678 -0.10392305
v 0.73710678 -1.27670640 -0.10392305
v 9.0269546e-17 -1.47421356 -0.10392305
v -0.73710678 -1.27670640 -0.10392305
v -1.27670640 -0.73710678 -0.10392305
v -1.47421356 -2.1735658e-16 -0.10392305
v -1.27670640 0.73710678 -0.10392305
v -0.73710678 1.27670640 -0.10392305
v -2.7080864e-16 1.47421356 -0.10392305
v 0.73710678 1.27670640 -0.10392305
v 1.27670640 0.73710678 -0.10392305
vt 0.0000000e+0 0.53347932
vt 0.0000000e+0 0.79419640
vt 1.5849734e-3 0.58839279
vt 2.8175130e-3 0.58515617
vt 1.2750189e-2 0.53576105
vt 1.6752235e-2 0.79419640
vt 2.7572456e-2 0.69129459
vt 2.7572457e-2 0.89709820
vt 2.8256569e-2 0.54166605
vt 3.0183867e-2 0.42083159
vt 3.9294845e-2 0.54844323
vt 4.2080351e-2 0.69967073
vt 4.2080352e-2 0.88872206
vt 4.9345824e-2 0.42689040
vt 7.3347307e-2 0.43603043
vt 7.9257819e-2 0.28111157
vt 9.1685608e-2 0.44425214
vt 0.10038761 0.28915803
vt 0.10290180 0.61596525
vt 0.10290180 0.97242755
vt 0.11127794 0.63047314
vt 0.11127794 0.95791965
vt 0.12684885 0.29923476
vt 0.13555085 0.14414065
vt 0.14797864 0.30728122
vt 0.15388915 0.15236236
vt 0.17789063 0.16150239
vt 0.18794161 3.9949562e-2
vt 0.19705259 0.16756120
vt 0.19897989 4.6726737e-2
vt 0.20580360 0.58839279
vt 0.20580360 0.60514507
vt 0.20580360 0.98324772
vt 0.20580360 1.00000000
vt 0.21448627 5.2631739e-2
vt 0.22441894 3.2366170e-3
vt 0.22565148 0.0000000e+0
vt 0.22723646 5.4913475e-2
vt 0.22723646 0.50004906
vt 0.23227056 0.39736937
vt 0.23992578 0.54740627
vt 0.24019425 0.49958691
vt 0.24050590 0.54381822
vt 0.24938229 0.26807734
vt 0.25225105 0.39936217
vt 0.25473996 0.50193867
vt 0.26689194 0.50646056
vt 0.27169560 0.27168496
vt 0.27388523 0.13998033
vt 0.27488054 0.40302090
vt 0.29347572 0.14438537
vt 0.29447102 0.40742594
vt 0.29666065 0.27572131
vt 0.30032927 0.63047314
vt 0.30032927 0.95791965
vt 0.30146432 4.0945714e-2
vt 0.30870541 0.61596525
vt 0.30870541 0.97242754
vt 0.31361629 4.5467604e-2
vt 0.31610520 0.14804410
vt 0.31897396 0.27932893
vt 0.32785035 3.5880535e-3
vt 0.32816200 4.7819357e-2
vt 0.32843047 0.0000000e+0
vt 0.33608570 0.15003690
vt 0.34111980 4.7357215e-2
vt 0.34111980 0.50004906
vt 0.34615390 0.39736937
vt 0.35380912 0.54740627
vt 0.35407759 0.49958691
vt 0.35438924 0.54381822
vt 0.36326563 0.26807734
vt 0.36613439 0.39936217
vt 0.36862330 0.50193867
vt 0.36952686 0.69967073
vt 0.36952686 0.88872206
vt 0.38077527 0.50646056
vt 0.38403475 0.69129459
vt 0.38403475 0.89709820
vt 0.38557894 0.27168496
vt 0.38776857 0.13998033
vt 0.38876388 0.40302090
vt 0.39485497 0.79419639
vt 0.40735906 0.14438537
vt 0.40835436 0.40742594
vt 0.41054399 0.27572131
vt 0.41160721 0.79419637
vt 0.41160721 0.79419640
vt 0.41534766 4.0945714e-2
vt 0.42749963 4.5467604e-2
vt 0.42835948 0.79419637
vt 0.42998854 0.14804410
vt 0.43285730 0.27932893
vt 0.43917966 0.89709815
vt 0.43917966 0.69129458
vt 0.44173369 3.5880535e-3
vt 0.44204534 4.7819357e-2
vt 0.44231381 0.0000000e+0
vt 0.44996904 0.15003690
vt 0.45368755 0.69967072
vt 0.45368755 0.88872202
vt 0.45500314 0.0000000e+0
vt 0.45500314 4.7357215e-2
vt 0.45751514 2.3842567e-3
vt 0.47734241 5.0189231e-2
vt 0.48784880 4.2613661e-2
vt 0.49927159 3.0578847e-2
vt 0.50628899 1.9691707e-2
vt 0.51450900 0.97242749
vt 0.51450900 0.61596524
vt 0.52288513 0.95791960
vt 0.52288513 0.63047314
vt 0.55330954 0.13867409
vt 0.56796117 0.12491839
vt 0.58564188 0.10629035
vt 0.59861485 9.0941348e-2
vt 0.61741078 0.99999994
vt 0.61741078 0.98324767
vt 0.61741078 0.58839279
vt 0.61741078 0.60514507
vt 0.65802328 0.24338784
vt 0.67358856 0.22698858
vt 0.69308125 0.20645148
vt 0.70864653 0.19005222
vt 0.71193643 0.95791960
vt 0.71193643 0.63047314
vt 0.72031257 0.61596524
vt 0.72031257 0.97242749
vt 0.76805497 0.34249871
vt 0.78102793 0.32714971
vt 0.78113401 0.88872202
vt 0.78113403 0.69967071
vt 0.79564191 0.89709815
vt 0.79564191 0.69129458
vt 0.79870864 0.30852167
vt 0.80646208 0.79419637
vt 0.81336028 0.29476597
vt 0.82321436 0.79419637
vt 0.86038083 0.41374835
vt 0.86739822 0.40286121
vt 0.87882101 0.39082640
vt 0.88932741 0.38325083
vt 0.90915468 0.43105580
vt 0.91166668 0.43344006
vn 1.00000000 5.3464052e-16 -7.2382102e-16
vn 0.86602540 -0.50000000 -7.1559578e-16
vn 0.50000000 -0.86602540 -2.5827250e-15
vn -1.4394168e-16 -1.00000000 7.4027149e-17
vn -0.50000000 -0.86602540 6.5801911e-17
vn -0.86602540 -0.50000000 -7.4849673e-16
vn -1.00000000 -4.1948718e-16 -7.5672197e-16
vn -0.86602540 0.50000000 -8.0607340e-16
vn -0.50000000 0.86602540 -4.9351433e-16
vn -7.5260935e-16 1.00000000 -4.6883861e-16
vn 0.50000000 0.86602540 1.1350830e-15
vn 0.86602540 0.50000000 -7.3204625e-16
vn 0.49343026 2.3133916e-16 0.86978536
vn 0.42732314 -0.24671513 0.86978536
vn 0.24671513 -0.42732314 0.86978536
vn -4.0585817e-17 -0.49343026 0.86978536
vn -0.24671513 -0.42732314 0.86978536
vn -0.42732314 -0.24671513 0.86978536
vn -0.49343026 -3.4397720e-17 0.86978536
vn -0.42732314 0.24671513 0.86978536
vn -0.24671513 0.42732314 0.86978536
vn -4.0585817e-16 0.49343026 0.86978536
vn 0.24671513 0.42732314 0.86978536
vn 0.42732314 0.24671513 0.86978536
vn -0.49343026 -1.5422611e-16 0.86978536
vn -0.42732314 0.24671513 0.86978536
vn -0.24671513 0.42732314 0.86978536
vn -1.4610894e-16 0.49343026 0.86978536
vn 0.24671513 0.42732314 0.86978536
vn 0.42732314 0.24671513 0.86978536
vn 0.49343026 3.0845221e-16 0.86978536
vn 0.42732314 -0.24671513 0.86978536
vn 0.24671513 -0.42732314 0.86978536
vn 2.0292909e-16 -0.49343026 0.86978536
vn -0.24671513 -0.42732314 0.86978536
vn -0.42732314 -0.24671513 0.86978536
vn -1.00000000 -2.9199598e-16 4.9351433e-17
vn -0.86602540 0.50000000 8.2252388e-17
vn -0.50000000 0.86602540 -1.9740573e-16
vn -1.1515334e-16 1.00000000 -1.1515334e-16
vn 0.50000000 0.86602540 -2.7143288e-16
vn 0.86602540 0.50000000 -1.1515334e-16
vn 1.00000000 1.1926596e-16 -1.6450478e-17
vn 0.86602540 -0.50000000 -2.1385621e-16
vn 0.50000000 -0.86602540 -2.0563097e-16
vn 3.5368527e-16 -1.00000000 1.6450478e-17
vn -0.50000000 -0.86602540 -1.1515334e-16
vn -0.86602540 -0.50000000 -1.1515334e-16
vn -0.49343026 -1.5772148e-16 -0.86978536
vn -0.42732314 0.24671513 -0.86978536
vn -0.24671513 0.42732314 -0.86978536
vn -1.4205036e-16 0.49343026 -0.86978536
vn 0.24671513 0.42732314 -0.86978536
vn 0.42732314 0.24671513 -0.86978536
vn 0.49343026 2.7248818e-16 -0.86978536
vn 0.42732314 -0.24671513 -0.86978536
vn 0.24671513 -0.42732314 -0.86978536
vn 2.0292909e-16 -0.49343026 -0.86978536
vn -0.24671513 -0.42732314 -0.86978536
vn -0.42732314 -0.24671513 -0.86978536
vn 0.49343026 2.0292909e-16 -0.86978536
vn 0.42732314 -0.24671513 -0.86978536
vn 0.24671513 -0.42732314 -0.86978536
vn -4.0585817e-17 -0.49343026 -0.86978536
vn -0.24671513 -0.42732314 -0.86978536
vn -0.42732314 -0.24671513 -0.86978536
vn -0.49343026 -1.4205036e-16 -0.86978536
vn -0.42732314 0.24671513 -0.86978536
vn -0.24671513 0.42732314 -0.86978536
vn -3.9774101e-16 0.49343026 -0.86978536
vn 0.24671513 0.42732314 -0.86978536
vn 0.42732314 0.24671513 -0.86978536
g torus3_torus3_auv
usemtl torus3_auv
s 1
f 1/142/1 13/141/13 2/137/2
f 1/1/1 61/5/61 12/3/12
f 2/137/2 13/141/13 14/135/14
f 2/137/2 15/123/15 3/124/3
f 2/10/2 61/5/61 1/1/1
f 2/10/2 63/18/63 62/14/62
f 3/124/3 15/123/15 4/116/4
f 3/16/3 63/18/63 2/10/2
f 4/116/4 15/123/15 16/115/16
f 4/116/4 17/107/17 5/108/5
f 4/24/4 63/18/63 3/16/3
f 4/24/4 65/30/65 64/26/64
f 5/108/5 17/107/17 6/102/6
f 5/28/5 65/30/65 4/24/4
f 6/102/6 17/107/17 18/104/18
f 6/102/6 19/106/19 7/105/7
f 6/37/6 65/30/65 5/28/5
f 6/37/6 67/35/67 66/36/66
f 7/105/7 19/106/19 8/113/8
f 7/38/7 67/35/67 6/37/6
f 8/113/8 19/106/19 20/114/20
f 8/113/8 21/122/21 9/121/9
f 8/29/8 67/35/67 7/38/7
f 8/29/8 69/23/69 68/27/68
f 9/121/9 21/122/21 10/129/10
f 9/25/9 69/23/69 8/29/8
f 10/129/10 21/122/21 22/130/22
f 10/129/10 23/140/23 11/139/11
f 10/17/10 69/23/69 9/25/9
f 10/17/10 71/9/71 70/15/70
f 11/139/11 23/140/23 12/144/12
f 11/11/11 71/9/71 10/17/10
f 12/144/12 13/141/13 1/142/1
f 12/144/12 23/140/23 24/143/24
f 12/3/12 61/5/61 72/4/72
f 12/3/12 71/9/71 11/11/11
f 13/88/13 26/75/26 14/78/14
f 13/88/13 36/76/36 25/83/25
f 14/135/14 15/123/15 2/137/2
f 14/78/14 26/75/26 15/57/15
f 15/57/15 26/75/26 27/54/27
f 15/57/15 28/32/28 16/31/16
f 16/115/16 17/107/17 4/116/4
f 16/31/16 28/32/28 17/19/17
f 17/19/17 28/32/28 29/21/29
f 17/19/17 30/12/30 18/7/18
f 18/104/18 19/106/19 6/102/6
f 18/7/18 30/12/30 19/2/19
f 19/2/19 30/12/30 31/6/31
f 19/2/19 32/13/32 20/8/20
f 20/114/20 21/122/21 8/113/8
f 20/8/20 32/13/32 21/20/21
f 21/20/21 32/13/32 33/22/33
f 21/20/21 34/33/34 22/34/22
f 22/130/22 23/140/23 10/129/10
f 22/34/22 34/33/34 23/58/23
f 23/58/23 34/33/34 35/55/35
f 23/58/23 36/76/36 24/79/24
f 24/143/24 13/141/13 12/144/12
f 24/79/24 36/76/36 13/88/13
f 25/83/25 26/75/26 13/88/13
f 25/103/25 37/97/37 26/98/26
f 26/98/26 37/97/37 38/96/38
f 26/98/26 39/90/39 27/89/27
f 27/54/27 28/32/28 15/57/15
f 27/89/27 39/90/39 28/81/28
f 28/81/28 39/90/39 40/84/40
f 28/81/28 41/80/41 29/72/29
f 29/21/29 30/12/30 17/19/17
f 29/72/29 41/80/41 30/68/30
f 30/68/30 41/80/41 42/73/42
f 30/68/30 43/70/43 31/67/31
f 31/6/31 32/13/32 19/2/19
f 31/67/31 43/70/43 32/69/32
f 32/69/32 43/70/43 44/71/44
f 32/69/32 45/74/45 33/77/33
f 33/22/33 34/33/34 21/20/21
f 33/77/33 45/74/45 34/85/34
f 34/85/34 45/74/45 46/82/46
f 34/85/34 47/86/47 35/93/35
f 35/55/35 36/76/36 23/58/23
f 35/93/35 47/86/47 36/99/36
f 36/99/36 37/97/37 25/103/25
f 36/99/36 47/86/47 48/92/48
f 37/42/37 50/40/50 38/45/38
f 37/42/37 60/41/60 49/39/49
f 38/96/38 39/90/39 26/98/26
f 38/45/38 50/40/50 39/48/39
f 39/48/39 50/40/50 51/44/51
f 39/48/39 52/49/52 40/51/40
f 40/84/40 41/80/41 28/81/28
f 40/51/40 52/49/52 41/59/41
f 41/59/41 52/49/52 53/56/53
f 41/59/41 54/64/54 42/62/42
f 42/73/42 43/70/43 30/68/30
f 42/62/42 54/64/54 43/63/43
f 43/63/43 54/64/54 55/66/55
f 43/63/43 56/65/56 44/60/44
f 44/71/44 45/74/45 32/69/32
f 44/60/44 56/65/56 45/53/45
f 45/53/45 56/65/56 57/61/57
f 45/53/45 58/52/58 46/50/46
f 46/82/46 47/86/47 34/85/34
f 46/50/46 58/52/58 47/46/47
f 47/46/47 58/52/58 59/47/59
f 47/46/47 60/41/60 48/43/48
f 48/92/48 37/97/37 36/99/36
f 48/43/48 60/41/60 37/42/37
f 49/39/49 50/40/50 37/42/37
f 49/91/49 61/87/61 50/100/50
f 50/100/50 61/87/61 62/95/62
f 50/100/50 63/110/63 51/112/51
f 51/44/51 52/49/52 39/48/39
f 51/112/51 63/110/63 52/120/52
f 52/120/52 63/110/63 64/119/64
f 52/120/52 65/127/65 53/126/53
f 53/56/53 54/64/54 41/59/41
f 53/126/53 65/127/65 54/132/54
f 54/132/54 65/127/65 66/134/66
f 54/132/54 67/138/67 55/136/55
f 55/66/55 56/65/56 43/63/43
f 55/136/55 67/138/67 56/131/56
f 56/131/56 67/138/67 68/133/68
f 56/131/56 69/128/69 57/125/57
f 57/61/57 58/52/58 45/53/45
f 57/125/57 69/128/69 58/118/58
f 58/118/58 69/128/69 70/117/70
f 58/118/58 71/109/71 59/111/59
f 59/47/59 60/41/60 47/46/47
f 59/111/59 71/109/71 60/101/60
f 60/101/60 61/87/61 49/91/49
f 60/101/60 71/109/71 72/94/72
f 62/14/62 61/5/61 2/10/2
f 62/95/62 63/110/63 50/100/50
f 64/26/64 63/18/63 4/24/4
f 64/119/64 65/127/65 52/120/52
f 66/36/66 65/30/65 6/37/6
f 66/134/66 67/138/67 54/132/54
f 68/27/68 67/35/67 8/29/8
f 68/133/68 69/128/69 56/131/56
f 70/15/70 69/23/69 10/17/10
f 70/117/70 71/109/71 58/118/58
f 72/94/72 61/87/61 60/101/60
f 72/4/72 71/9/71 12/3/12
